<svg xmlns="http://www.w3.org/2000/svg" width="1536" height="208" viewBox="0 0 1536 208"><title>TAIGA WOLF — body-only game decal</title><desc>Transparent artwork for existing safe-body UV mesh. No full car, no wheels or windows.</desc><defs>
 <linearGradient id="accent" x1="0" y1="0" x2="1" y2=".25"><stop stop-color="#85b7b1"/><stop offset="1" stop-color="#ecf6e7"/></linearGradient>
 <linearGradient id="panel" x1="0" y1="0" x2="1" y2=".3"><stop stop-color="#142527" stop-opacity=".98"/><stop offset="1" stop-color="#142527" stop-opacity=".84"/></linearGradient>
 <pattern id="micro" width="35" height="28" patternUnits="userSpaceOnUse"><path d="M4 8h17M13 21h10" stroke="#ecf6e7" stroke-width="1.1" opacity=".2"/></pattern>
 </defs>
 <g stroke-linejoin="round" stroke-linecap="round">
 <path d="M-28 161L416 3h100L65 208H-24Z" fill="#142527" opacity=".91"/>
 <path d="M-20 185L466 7h38L40 208H-20Z" fill="url(#accent)"/>
 <path d="M3 193L497 17h26L85 208H14Z" fill="#ecf6e7" opacity=".80"/>
 <path d="M1037 0h87l436 149v60h-60L1021 17Z" fill="#142527" opacity=".91"/>
 <path d="M1100 0h57l381 130v30L1064 7Z" fill="url(#accent)"/>
 <path d="M1148 0h22l368 125v10L1119 8Z" fill="#ecf6e7" opacity=".9"/>
 <path d="M9 21h226m-178 20h117M1319 181h170m-97-18h110" stroke="#85b7b1" stroke-width="3" fill="none" opacity=".75"/>
 <path d="M473 17L1043 13 1004 196H481Z" fill="url(#panel)" stroke="#85b7b1" stroke-width="7"/>
 <path d="M487 28L1029 25 991 183H493Z" fill="url(#micro)"/>
 <path d="M493 194h175l-23 9H478Z" fill="#85b7b1"/>
 <g font-family="Arial,Helvetica,sans-serif" font-weight="900">
 <text x="26" y="39" font-size="26" font-style="italic" fill="#85b7b1" letter-spacing="3">06</text>
 <text x="1145" y="185" font-size="29" font-style="italic" fill="#ecf6e7" letter-spacing="2">FOREST</text></g><g font-family="Arial Black,Arial,Helvetica,sans-serif" font-weight="900" font-style="italic" letter-spacing="-1"><text x="511" y="105" font-size="75" fill="#ecf6e7" stroke="#142527" stroke-width="5" paint-order="stroke">TAIGA</text><text x="516" y="151" font-size="30" fill="#85b7b1" letter-spacing="1.5">WOLF RAID</text></g>
 <g transform="translate(880 106)">
 <path d="M-101 75L-96-41-48-83-9-48 29-95 83-42 94 73 44 95-6 61-53 95Z" fill="#85b7b1" stroke="#142527" stroke-width="9"/>
 <path d="M-69-15L-29 0-16 30-68 12Zm73 45L18 0 65-15 65 12Z" fill="#142527"/>
 <path d="M-34 30L5 21 30 34 6 68-20 50Z" fill="#ecf6e7"/>
 <path d="M-12 42l12-5 13 7-13 11Z" fill="#142527"/>
 <path d="M-95 77L-44 50-56 85-5 57 39 88 87 72" fill="none" stroke="#ecf6e7" stroke-width="7"/>
 </g>
 <g fill="#415f55"><path d="M5 191l63-114 60 114h-23l-37-64-38 64Zm118-1 51-90 50 90h-23l-27-46-27 46Zm1121 0 67-124 65 124h-23l-42-75-40 75Zm132 0 46-85 46 85h-22l-24-48-26 48Z"/></g></g></svg>